Coordinates
version=1
nRows=12
nColumns=24
inDegrees=yes

Units are S.I. units (second, meters, Newtons, ...)
If the header above contains a line with 'inDegrees', this indicates whether rotational values are in degrees (yes) or radians (no).

endheader
time	pelvis_tilt	pelvis_list	pelvis_rotation	pelvis_tx	pelvis_ty	pelvis_tz	lumbar_extension	lumbar_bending	lumbar_rotation	arm_flex_r	arm_add_r	arm_rot_r	elbow_flex_r	pro_sup_r	wrist_flex_r	wrist_dev_r	arm_flex_l	arm_add_l	arm_rot_l	elbow_flex_l	pro_sup_l	wrist_flex_l	wrist_dev_l
     15.24400000	    -13.22575843	      2.12028378	      3.87626174	      1.05247476	      0.89130385	      0.07899231	     -8.66109607	      4.88246463	      3.92422956	     19.77712952	    -17.70367799	     42.31649999	     12.55857885	     70.88881986	    -26.34394658	    -24.99999983	     32.34222902	    -17.14867788	     46.45393064	    131.41076902	     59.39496217	    -19.87887079	    -16.09581356
     15.24800000	    -13.24545027	      2.10401417	      3.87301938	      1.05211290	      0.89125133	      0.07910953	     -8.68411308	      4.86785166	      3.91621250	     19.82844867	    -17.69767020	     42.32455357	     12.58450375	     70.88525840	    -26.35495760	    -24.99999983	     32.26083399	    -17.16894663	     46.47055408	    131.22578996	     59.35422445	    -19.89555468	    -16.10073144
     15.25200000	    -13.26737817	      2.11985176	      3.89979218	      1.05162289	      0.89135694	      0.07858271	     -8.70824341	      4.88305314	      3.94672638	     19.89031409	    -17.77150856	     42.31324721	     12.51124759	     70.87332163	    -26.37881050	    -24.99999983	     32.16726325	    -17.02065861	     46.46656424	    130.90358200	     59.23733138	    -19.93908468	    -16.15882707
     15.25600000	    -13.29396085	      2.10670686	      3.90429464	      1.05135091	      0.89127257	      0.07873668	     -8.73783614	      4.87069920	      3.94604636	     19.96104242	    -17.74824300	     42.29301168	     12.50701397	     70.87563251	    -26.38309605	    -24.99999983	     32.05620009	    -17.06667592	     46.52999218	    130.75271951	     59.21092208	    -19.94864265	    -16.15750738
     15.26000000	    -13.30221726	      2.11825425	      3.91165076	      1.05107604	      0.89128921	      0.07855257	     -8.74710270	      4.88230643	      3.95561433	     20.03768686	    -17.71834884	     42.18028692	     12.32584749	     70.90298068	    -26.38925412	    -24.99999983	     31.90885499	    -17.01798582	     46.49849158	    130.44663624	     59.10703253	    -19.99289519	    -16.24260413
     15.26400000	    -13.33112068	      2.10412441	      3.90320315	      1.05068134	      0.89131655	      0.07880993	     -8.77882466	      4.87074889	      3.94128764	     20.11000574	    -17.68774849	     42.16695676	     12.35555857	     70.91689224	    -26.38975348	    -24.99999983	     31.78097576	    -17.10856992	     46.55474508	    130.26257473	     59.07931658	    -20.00468209	    -16.24595571
     15.26800000	    -13.35482840	      2.09195469	      3.89533932	      1.05033366	      0.89132375	      0.07904075	     -8.80506432	      4.86076290	      3.92837971	     20.17221493	    -17.66044550	     42.15436084	     12.37540734	     70.93039544	    -26.39015964	    -24.99999983	     31.65933735	    -17.19788693	     46.58528963	    130.04340382	     59.05082685	    -20.02108003	    -16.25188264
     15.27200000	    -13.37508050	      2.07822999	      3.88461264	      1.05002013	      0.89129615	      0.07927170	     -8.82781606	      4.84942695	      3.91264638	     20.23154506	    -17.62836399	     42.14326595	     12.39113145	     70.94431320	    -26.38993161	    -24.99999983	     31.53718719	    -17.28128147	     46.61193467	    129.80555894	     59.02193351	    -20.04029387	    -16.26082904
     15.27600000	    -13.39424528	      2.05777333	      3.87114378	      1.04978607	      0.89123342	      0.07963057	     -8.84954349	      4.83129534	      3.89240210	     20.27528098	    -17.57277643	     42.13790871	     12.41038664	     70.95754323	    -26.38955259	    -24.99999983	     31.42924832	    -17.35862210	     46.61083773	    129.51249515	     59.00700832	    -20.05822895	    -16.26908709
     15.28000000	    -13.32901098	      2.11097306	      3.84918438	      1.05069840	      0.89121601	      0.07862860	     -8.77467862	      4.88591031	      3.89053892	     20.13383103	    -17.73949062	     42.20553225	     12.45697707	     71.34501876	    -26.27948147	    -24.99999983	     31.02762453	    -17.14039592	     46.41234245	    128.60702287	     60.84521034	    -19.42344207	    -17.65664174
     15.28400000	    -13.35731311	      2.08542005	      3.82954730	      1.05022695	      0.89123345	      0.07901154	     -8.80665324	      4.86424178	      3.86264320	     20.19475579	    -17.69329629	     42.21139644	     12.51836358	     71.34502875	    -26.28475293	    -24.99999983	     30.90202647	    -17.26224237	     46.46182337	    128.38775092	     60.81888272	    -19.43776593	    -17.63664784
     15.28800000	    -13.38810992	      2.07539946	      3.82775000	      1.04979597	      0.89121603	      0.07913489	     -8.84062286	      4.85633228	      3.85616728	     20.26818244	    -17.68015528	     42.20285811	     12.53769770	     71.34161123	    -26.29028385	    -24.99999983	     30.75677108	    -17.37290484	     46.53008279	    128.23184437	     60.77045618	    -19.46127662	    -17.61272146
